<svg width="10" height="10" viewBox="0 0 10 10" fill="none" xmlns="http://www.w3.org/2000/svg">
<path d="M1.82023 0.312302C1.40383 -0.104101 0.728706 -0.104101 0.312303 0.312302C-0.104101 0.728706 -0.104101 1.40383 0.312303 1.82023L3.49207 5L0.312303 8.17977C-0.104101 8.59617 -0.104101 9.27129 0.312303 9.6877C0.728706 10.1041 1.40383 10.1041 1.82023 9.6877L5 6.50793L8.17977 9.68769C8.59617 10.1041 9.27129 10.1041 9.6877 9.68769C10.1041 9.27129 10.1041 8.59616 9.6877 8.17976L6.50794 5L9.6877 1.82024C10.1041 1.40384 10.1041 0.728714 9.6877 0.312311C9.27129 -0.104092 8.59617 -0.104092 8.17977 0.312311L5 3.49207L1.82023 0.312302Z" fill="black"/>
</svg>
