<svg width="20" height="20" viewBox="0 0 20 20" fill="none" xmlns="http://www.w3.org/2000/svg">
<path d="M10 20C4.48558 20 0 15.5144 0 10C0 4.48558 4.48558 0 10 0C15.5144 0 20 4.48558 20 10C20 15.5144 15.5144 20 10 20ZM10 1.39535C5.25581 1.39535 1.39535 5.25581 1.39535 10C1.39535 14.7442 5.25581 18.6047 10 18.6047C14.7442 18.6047 18.6047 14.7442 18.6047 10C18.6047 5.25581 14.7442 1.39535 10 1.39535Z" fill="black" fill-opacity="0.4"/>
<path d="M10.0006 14.7576C8.2406 14.7576 6.62106 13.8739 5.66943 12.3911C5.46106 12.0674 5.55501 11.6376 5.87967 11.4283C6.20339 11.2181 6.63501 11.313 6.84339 11.6385C7.53827 12.7195 8.71873 13.3641 10.0015 13.3641C11.2843 13.3641 12.4648 12.7195 13.1606 11.6395C13.369 11.3139 13.8006 11.2209 14.1243 11.4302C14.4499 11.6385 14.5429 12.0702 14.3345 12.3939C13.3811 13.8767 11.7615 14.7613 10.0015 14.7613L10.0006 14.7576Z" fill="black" fill-opacity="0.4"/>
<path d="M12.5468 9.01051C13.3061 9.01051 13.9216 8.39495 13.9216 7.63563C13.9216 6.8763 13.3061 6.26074 12.5468 6.26074C11.7874 6.26074 11.1719 6.8763 11.1719 7.63563C11.1719 8.39495 11.7874 9.01051 12.5468 9.01051Z" fill="black" fill-opacity="0.4"/>
<path d="M7.45301 9.01051C8.21233 9.01051 8.82789 8.39495 8.82789 7.63563C8.82789 6.8763 8.21233 6.26074 7.45301 6.26074C6.69368 6.26074 6.07812 6.8763 6.07812 7.63563C6.07812 8.39495 6.69368 9.01051 7.45301 9.01051Z" fill="black" fill-opacity="0.4"/>
</svg>
