<svg width="22" height="18" viewBox="0 0 22 18" fill="none" xmlns="http://www.w3.org/2000/svg">
<path d="M0.113285 8.68114C-0.0377618 8.84617 -0.0377618 9.15318 0.113285 9.31849L3.3643 12.8813C3.51535 13.0467 3.75267 13.0382 3.89447 12.8624C4.03651 12.6863 4.02901 12.4096 3.87821 12.2443L1.31691 9.43745H15.6249C15.8322 9.43745 16 9.24181 16 9.00011C16 8.75841 15.8322 8.56277 15.6249 8.56277H1.31691L3.87821 5.75593C3.95674 5.66992 3.9965 5.55388 3.9965 5.43725C3.9965 5.32996 3.96274 5.22238 3.89472 5.13782C3.75292 4.96172 3.51535 4.95327 3.36455 5.11887L0.113285 8.68114Z" fill="black"/>
<path d="M22 0.415128V17.5849C22 17.8143 21.825 18 21.6087 18H16.3913C16.175 18 16 17.8143 16 17.5849C16 17.3554 16.175 17.1697 16.3913 17.1697H21.2174V0.830257H16.3913C16.175 0.830257 16 0.644556 16 0.415128C16 0.1857 16.175 -2.37618e-07 16.3913 -2.37618e-07H21.6087C21.8247 -2.37618e-07 22 0.1857 22 0.415128Z" fill="black"/>
</svg>
