<svg width="28" height="28" viewBox="0 0 28 28" fill="none" xmlns="http://www.w3.org/2000/svg">
<path fill-rule="evenodd" clip-rule="evenodd" d="M4.4969 4.69062C6.32534 2.79511 9.14149 2.15918 12.8322 2.15918H15.1656C18.8563 2.15918 21.6725 2.79511 23.5009 4.69062C25.3183 6.57469 25.8406 9.37826 25.8406 12.8342V15.1675C25.8406 18.6234 25.3183 21.427 23.5009 23.3111C21.6725 25.2066 18.8563 25.8425 15.1656 25.8425H12.8322C9.3763 25.8425 6.57274 25.3203 4.68866 23.5028C2.79316 21.6744 2.15723 18.8582 2.15723 15.1675V12.8342C2.15723 9.37826 2.67948 6.57469 4.4969 4.69062ZM5.32357 9.33172C4.67774 8.96845 3.85971 9.1975 3.49643 9.84332C3.13316 10.4891 3.36221 11.3072 4.00803 11.6704L12.1974 16.277C13.3161 16.9063 14.6821 16.9063 15.8008 16.277L23.9902 11.6704C24.6361 11.3072 24.8651 10.4891 24.5018 9.84332C24.1386 9.1975 23.3205 8.96845 22.6747 9.33172L14.4853 13.9383C14.1834 14.1081 13.8148 14.1081 13.513 13.9383L5.32357 9.33172Z" fill="black"/>
</svg>
