<svg width="21" height="21" viewBox="0 0 21 21" fill="none" xmlns="http://www.w3.org/2000/svg">
<path fill-rule="evenodd" clip-rule="evenodd" d="M12.5183 1.41169C12.5684 0.716234 12.1075 0.0292075 11.4116 0.0727683C11.1123 0.0915031 10.813 0.126204 10.515 0.177076C8.64748 0.495818 6.93565 1.43112 5.65157 2.83453L1.799 7.04619C1.30149 7.59025 0.931362 8.23875 0.715965 8.9438C0.500566 9.64884 0.445399 10.3924 0.554482 11.1196C0.663565 11.8468 0.934109 12.539 1.34609 13.1452C1.75806 13.7514 2.30097 14.2561 2.93474 14.6222L3.24956 14.804C3.29197 14.8285 3.31304 14.8781 3.30121 14.9256C3.05371 15.9197 3.13431 16.9654 3.53071 17.9053C3.92709 18.8452 4.61779 19.6283 5.49871 20.1369C6.37963 20.6455 7.40322 20.8521 8.41536 20.7255C9.42752 20.5988 10.3735 20.1457 11.1106 19.4344C11.1459 19.4003 11.1994 19.3938 11.2418 19.4183L11.3937 19.506C12.0463 19.8829 12.7778 20.1027 13.5312 20.1482C14.2845 20.1938 15.0394 20.0639 15.7367 19.7685C16.434 19.4732 17.0548 19.0204 17.5507 18.4456C18.0466 17.8708 18.4041 17.1895 18.5951 16.4549L18.6309 16.3176C18.6312 16.3165 18.6324 16.316 18.6334 16.3165C18.6343 16.3171 18.6356 16.3166 18.6359 16.3155L20.1007 10.6716C20.1888 10.332 20.2556 9.98878 20.3012 9.64402C20.3895 8.9759 19.7632 8.48008 19.0893 8.48008C15.4507 8.48008 12.5011 5.53043 12.5011 1.89185C12.5011 1.73037 12.5069 1.57026 12.5183 1.41169ZM18.6628 16.6227L18.6716 16.5922C18.6804 16.5613 18.6889 16.5303 18.697 16.4992L18.6628 16.6227Z" fill="black"/>
</svg>
