<svg width="24" height="28" viewBox="0 0 24 28" fill="none" xmlns="http://www.w3.org/2000/svg">
<path d="M23.111 3.17051H20.8421V1.03492C20.8421 0.772478 20.6278 0.560059 20.3631 0.560059H1.38902C1.12428 0.560059 0.910004 0.772478 0.910004 1.03492V6.25518C0.910004 6.51762 1.12428 6.73004 1.38902 6.73004H20.3631C20.6278 6.73004 20.8421 6.51762 20.8421 6.25518V4.12022H22.632V9.20436L11.0906 11.9649C10.8757 12.0165 10.724 12.207 10.724 12.4264V14.7985H9.5019C9.23717 14.7985 9.02289 15.0109 9.02289 15.2734V26.5452C9.02289 26.8076 9.23717 27.0201 9.5019 27.0201H12.9042C13.1689 27.0201 13.3832 26.8076 13.3832 26.5452V15.2734C13.3832 15.0109 13.1689 14.7985 12.9042 14.7985H11.6821V12.8003L23.2234 10.0398C23.4383 9.98819 23.59 9.79762 23.59 9.57823V3.64537C23.59 3.38324 23.3757 3.17051 23.111 3.17051ZM19.8844 5.78032H1.86835V1.50977H19.8844V5.78032ZM12.4255 26.0703H9.98124V15.7482H12.4255V26.0703Z" fill="white"/>
</svg>
