<svg width="22" height="22" viewBox="0 0 22 22" fill="none" xmlns="http://www.w3.org/2000/svg">
<path d="M10.8806 6.45654C8.44113 6.45654 6.45654 8.44113 6.45654 10.8806C6.45654 13.32 8.44113 15.3046 10.8806 15.3046C13.32 15.3046 15.3046 13.32 15.3046 10.8806C15.3046 8.44113 13.32 6.45654 10.8806 6.45654ZM10.8806 14.5872C8.83666 14.5872 7.17395 12.9244 7.17395 10.8806C7.17395 8.83666 8.83666 7.17395 10.8806 7.17395C12.9244 7.17395 14.5872 8.83666 14.5872 10.8806C14.5872 12.9244 12.9244 14.5872 10.8806 14.5872Z" fill="black"/>
<path d="M21.6953 9.08739L18.8334 8.65432C18.676 8.12392 18.4634 7.60882 18.1994 7.11787L19.9155 4.79036C20.0207 4.6476 20.0058 4.44936 19.8805 4.32381L17.6767 2.12018C17.5511 1.99487 17.3529 1.9798 17.2101 2.08502L14.89 3.79532C14.3969 3.52749 13.8785 3.31179 13.3438 3.15181L12.9131 0.305137C12.8865 0.129612 12.7359 0 12.5584 0H9.44203C9.26459 0 9.11394 0.129612 9.08739 0.305137L8.65671 3.15181C8.122 3.31179 7.60356 3.52773 7.11046 3.79532L4.79037 2.08502C4.6476 1.9798 4.44936 1.99463 4.32381 2.12018L2.12018 4.32381C1.99487 4.44912 1.9798 4.6476 2.08502 4.79036L3.80106 7.11787C3.53706 7.60882 3.32446 8.12392 3.16711 8.65432L0.305137 9.08739C0.129612 9.11394 0 9.26459 0 9.44203V12.5584C0 12.7359 0.129612 12.8865 0.304898 12.9131L3.18098 13.3483C3.34001 13.873 3.55212 14.3811 3.81397 14.8647L2.08478 17.2101C1.97956 17.3529 1.99463 17.5511 2.11994 17.6767L4.32357 19.8803C4.44888 20.0058 4.64736 20.0207 4.79013 19.9155L7.14322 18.1808C7.62436 18.439 8.12942 18.648 8.64978 18.8042L9.08715 21.6953C9.1137 21.8709 9.26435 22.0005 9.44179 22.0005H12.5582C12.7356 22.0005 12.8863 21.8709 12.9128 21.6953L13.3502 18.8042C13.8706 18.648 14.3756 18.439 14.8568 18.1808L17.2099 19.9155C17.3526 20.0207 17.5509 20.0056 17.6764 19.8803L19.8803 17.6767C20.0056 17.5514 20.0207 17.3529 19.9152 17.2101L18.186 14.8647C18.4481 14.3811 18.6602 13.873 18.819 13.3483L21.6951 12.9131C21.8704 12.8865 22 12.7359 22 12.5584V9.44203C22.0002 9.26483 21.8706 9.11394 21.6953 9.08739ZM21.2828 12.25L18.4842 12.6735C18.3436 12.6948 18.2288 12.7971 18.1915 12.9341C18.0232 13.5547 17.7735 14.1525 17.4495 14.7114C17.3777 14.835 17.3861 14.9893 17.471 15.1043L19.1545 17.3878L17.3871 19.1552L15.0966 17.4667C14.9818 17.3823 14.8283 17.3734 14.7052 17.4445C14.1477 17.7647 13.553 18.011 12.9368 18.1762C12.7993 18.2133 12.6964 18.3281 12.6751 18.4692L12.2495 21.2835H9.75004L9.32438 18.4692C9.30309 18.3283 9.20027 18.2133 9.06276 18.1762C8.44651 18.011 7.85178 17.7647 7.29435 17.4445C7.1712 17.3737 7.01744 17.3825 6.90289 17.4667L4.61245 19.1552L2.845 17.3878L4.52851 15.1043C4.61317 14.9893 4.62177 14.835 4.55003 14.7114C4.22601 14.1528 3.97635 13.5547 3.808 12.9341C3.77069 12.7969 3.65591 12.6948 3.51529 12.6735L0.71669 12.25V9.75052L3.50262 9.32916C3.64395 9.30788 3.75921 9.20457 3.7958 9.06635C3.96152 8.44077 4.2107 7.83623 4.53688 7.26948C4.6079 7.14609 4.59906 6.99233 4.51464 6.87778L2.845 4.61293L4.61245 2.84547L6.87061 4.5101C6.98563 4.59475 7.13987 4.60336 7.26375 4.53138C7.83169 4.20137 8.43934 3.94861 9.06922 3.78002C9.20696 3.74319 9.30979 3.62817 9.33107 3.48708L9.75004 0.717168H12.2495L12.6684 3.48708C12.6897 3.62817 12.7926 3.74319 12.9303 3.78002C13.5602 3.94861 14.1676 4.20137 14.7358 4.53138C14.8594 4.6036 15.0137 4.59475 15.1289 4.5101L17.3871 2.84547L19.1545 4.61293L17.4849 6.87778C17.4005 6.99233 17.3916 7.14609 17.4626 7.26948C17.7886 7.83623 18.038 8.44077 18.2037 9.06635C18.2403 9.20457 18.3556 9.30764 18.4969 9.32916L21.2828 9.75052V12.25Z" fill="black"/>
</svg>
