<svg width="23" height="41" viewBox="0 0 23 41" fill="none" xmlns="http://www.w3.org/2000/svg">
<mask id="path-1-outside-1_408_8589" maskUnits="userSpaceOnUse" x="0" y="0.000488281" width="23" height="41" fill="black">
<rect fill="white" y="0.000488281" width="23" height="41"/>
<path fill-rule="evenodd" clip-rule="evenodd" d="M2 20.4102L20.3667 2.00049L21 2.6353L3.17703 20.5L21 38.3647L20.3667 38.9995L2 20.5898L2.08963 20.5L2 20.4102Z"/>
</mask>
<path fill-rule="evenodd" clip-rule="evenodd" d="M2 20.4102L20.3667 2.00049L21 2.6353L3.17703 20.5L21 38.3647L20.3667 38.9995L2 20.5898L2.08963 20.5L2 20.4102Z" fill="white"/>
<path d="M20.3667 2.00049L21.7825 0.587929C21.4073 0.211844 20.8979 0.000488043 20.3667 0.000488281C19.8354 0.0004884 19.326 0.211845 18.9508 0.587929L20.3667 2.00049ZM2 20.4102L0.584134 18.9976C-0.194711 19.7783 -0.194711 21.042 0.584133 21.8227L2 20.4102ZM21 2.6353L22.4159 4.04786C23.1947 3.26719 23.1947 2.00341 22.4159 1.22274L21 2.6353ZM3.17703 20.5L1.76117 19.0874C0.982322 19.8681 0.982322 21.1319 1.76117 21.9126L3.17703 20.5ZM21 38.3647L22.4159 39.7773C23.1947 38.9966 23.1947 37.7328 22.4159 36.9521L21 38.3647ZM20.3667 38.9995L18.9508 40.4121C19.326 40.7882 19.8354 40.9995 20.3667 40.9995C20.8979 40.9995 21.4073 40.7882 21.7825 40.4121L20.3667 38.9995ZM2 20.5898L0.584133 19.1773C-0.194711 19.958 -0.194711 21.2217 0.584134 22.0024L2 20.5898ZM2.08963 20.5L3.5055 21.9126C4.28434 21.1319 4.28434 19.8681 3.5055 19.0874L2.08963 20.5ZM18.9508 0.587929L0.584134 18.9976L3.41587 21.8227L21.7825 3.41305L18.9508 0.587929ZM22.4159 1.22274L21.7825 0.587929L18.9508 3.41305L19.5841 4.04786L22.4159 1.22274ZM4.5929 21.9126L22.4159 4.04786L19.5841 1.22274L1.76117 19.0874L4.5929 21.9126ZM1.76117 21.9126L19.5841 39.7773L22.4159 36.9521L4.5929 19.0874L1.76117 21.9126ZM19.5841 36.9521L18.9508 37.587L21.7825 40.4121L22.4159 39.7773L19.5841 36.9521ZM21.7825 37.587L3.41587 19.1773L0.584134 22.0024L18.9508 40.4121L21.7825 37.587ZM3.41587 22.0024L3.5055 21.9126L0.673766 19.0874L0.584133 19.1773L3.41587 22.0024ZM0.584133 21.8227L0.673766 21.9126L3.5055 19.0874L3.41587 18.9976L0.584133 21.8227Z" fill="white" mask="url(#path-1-outside-1_408_8589)"/>
</svg>
