<svg width="23" height="41" viewBox="0 0 23 41" fill="none" xmlns="http://www.w3.org/2000/svg">
<mask id="path-1-outside-1_408_8583" maskUnits="userSpaceOnUse" x="0" y="0.000488281" width="23" height="41" fill="black">
<rect fill="white" y="0.000488281" width="23" height="41"/>
<path fill-rule="evenodd" clip-rule="evenodd" d="M21 20.4102L2.63333 2.00049L2 2.6353L19.823 20.5L2 38.3647L2.63333 38.9995L21 20.5898L20.9104 20.5L21 20.4102Z"/>
</mask>
<path fill-rule="evenodd" clip-rule="evenodd" d="M21 20.4102L2.63333 2.00049L2 2.6353L19.823 20.5L2 38.3647L2.63333 38.9995L21 20.5898L20.9104 20.5L21 20.4102Z" fill="white"/>
<path d="M2.63333 2.00049L1.21747 0.587929C1.59267 0.211844 2.10209 0.000488043 2.63333 0.000488281C3.16458 0.0004884 3.67399 0.211845 4.0492 0.587929L2.63333 2.00049ZM21 20.4102L22.4159 18.9976C23.1947 19.7783 23.1947 21.042 22.4159 21.8227L21 20.4102ZM2 2.6353L0.584133 4.04786C-0.194712 3.26719 -0.194712 2.00341 0.584135 1.22274L2 2.6353ZM19.823 20.5L21.2388 19.0874C22.0177 19.8681 22.0177 21.1319 21.2388 21.9126L19.823 20.5ZM2 38.3647L0.584135 39.7773C-0.194712 38.9966 -0.194712 37.7328 0.584133 36.9521L2 38.3647ZM2.63333 38.9995L4.0492 40.4121C3.67399 40.7882 3.16458 40.9995 2.63333 40.9995C2.10209 40.9995 1.59267 40.7882 1.21747 40.4121L2.63333 38.9995ZM21 20.5898L22.4159 19.1773C23.1947 19.958 23.1947 21.2217 22.4159 22.0024L21 20.5898ZM20.9104 20.5L19.4945 21.9126C18.7157 21.1319 18.7157 19.8681 19.4945 19.0874L20.9104 20.5ZM4.0492 0.587929L22.4159 18.9976L19.5841 21.8227L1.21747 3.41305L4.0492 0.587929ZM0.584135 1.22274L1.21747 0.587929L4.0492 3.41305L3.41586 4.04786L0.584135 1.22274ZM18.4071 21.9126L0.584133 4.04786L3.41587 1.22274L21.2388 19.0874L18.4071 21.9126ZM21.2388 21.9126L3.41587 39.7773L0.584133 36.9521L18.4071 19.0874L21.2388 21.9126ZM3.41586 36.9521L4.0492 37.587L1.21747 40.4121L0.584135 39.7773L3.41586 36.9521ZM1.21747 37.587L19.5841 19.1773L22.4159 22.0024L4.0492 40.4121L1.21747 37.587ZM19.5841 22.0024L19.4945 21.9126L22.3262 19.0874L22.4159 19.1773L19.5841 22.0024ZM22.4159 21.8227L22.3262 21.9126L19.4945 19.0874L19.5841 18.9976L22.4159 21.8227Z" fill="white" mask="url(#path-1-outside-1_408_8583)"/>
</svg>
