<svg width="14" height="19" viewBox="0 0 14 19" fill="none" xmlns="http://www.w3.org/2000/svg">
<path d="M13.984 6.14329V2.38274C13.984 2.18991 13.8354 2.0334 13.6519 2.0334H7.42861V0.349342C7.42861 0.156505 7.28008 0 7.09658 0C6.91308 0 6.76455 0.156505 6.76455 0.349342V2.0334H0.34975C0.166248 2.0334 0.0177205 2.18991 0.0177205 2.38274V6.13584C0.00421803 6.17846 -0.00220113 6.22387 0.000676456 6.26952L0.785151 18.6739C0.796661 18.8575 0.941647 19 1.11652 19H12.8836C13.0585 19 13.2033 18.8575 13.215 18.6739L13.9995 6.26952C14.0019 6.22644 13.9959 6.18382 13.984 6.14329ZM13.3199 2.73209V5.89712H0.681779V2.73209H13.3199ZM12.5728 18.3015H1.42707L0.68687 6.59581H13.3133L12.5728 18.3015Z" fill="black"/>
<path d="M7.0957 15.7466C7.2792 15.7466 7.42773 15.5901 7.42773 15.3972V9.49988C7.42773 9.30705 7.2792 9.15054 7.0957 9.15054C6.9122 9.15054 6.76367 9.30705 6.76367 9.49988V15.3972C6.76367 15.5901 6.91242 15.7466 7.0957 15.7466Z" fill="black"/>
<path d="M10.2383 15.7466C10.4218 15.7466 10.5703 15.5901 10.5703 15.3972V9.49988C10.5703 9.30705 10.4218 9.15054 10.2383 9.15054C10.0548 9.15054 9.90625 9.30705 9.90625 9.49988V15.3972C9.90625 15.5901 10.0548 15.7466 10.2383 15.7466Z" fill="black"/>
<path d="M4.07582 15.7467C4.0798 15.7467 4.08356 15.7467 4.08755 15.7464C4.27083 15.7399 4.41426 15.5781 4.40784 15.3852L4.2146 9.48787C4.20841 9.29503 4.05213 9.13969 3.87129 9.15087C3.68801 9.15739 3.54457 9.31925 3.55099 9.51209L3.74423 15.4094C3.75043 15.5983 3.89785 15.7467 4.07582 15.7467Z" fill="black"/>
</svg>
