<svg width="13" height="18" viewBox="0 0 13 18" fill="none" xmlns="http://www.w3.org/2000/svg">
<path fill-rule="evenodd" clip-rule="evenodd" d="M11.3755 4.5C11.3755 6.98527 9.19301 9 6.50076 9C3.80961 8.9975 1.62864 6.98425 1.62598 4.5C1.62598 2.01473 3.80851 0 6.50076 0C9.19301 0 11.3755 2.01473 11.3755 4.5ZM8.93815 4.5C8.93815 3.25737 7.84689 2.25 6.50076 2.25C5.15463 2.25 4.06337 3.25737 4.06337 4.5C4.06337 5.74263 5.15463 6.75 6.50076 6.75C7.84689 6.75 8.93815 5.74263 8.93815 4.5ZM0.000591814 16.7123C-0.0453759 13.5033 2.59257 10.8024 6.05507 10.5135C6.19846 10.5046 6.34211 10.5001 6.4858 10.4999C10.0795 10.4962 12.996 13.1826 13 16.5V16.875C13 17.4963 12.4544 18 11.7813 18C11.1082 18 10.5626 17.4963 10.5626 16.875V16.5C10.5625 16.3775 10.5559 16.255 10.5428 16.133C10.3211 14.0695 8.32935 12.5627 6.09407 12.7673C3.97651 13.0167 2.40135 14.6969 2.43798 16.6673V16.875C2.43798 17.4963 1.89235 18 1.21929 18C0.546225 18 0.000591814 17.4963 0.000591814 16.875V16.7123Z" fill="black"/>
</svg>
